<svg width="315" height="111" viewBox="0 0 315 111" fill="none" xmlns="http://www.w3.org/2000/svg">
<mask id="mask0_545_6183" style="mask-type:alpha" maskUnits="userSpaceOnUse" x="0" y="-1" width="315" height="112">
<rect y="-0.000396729" width="315" height="111" rx="10" fill="#292B32" fill-opacity="0.06"/>
</mask>
<g mask="url(#mask0_545_6183)">
<path d="M232.84 40.8091C195.445 49.8377 156.309 87.069 145.428 123.968L160.315 139.616C171.196 102.717 210.332 65.4857 247.727 56.4571L232.84 40.8091Z" fill="black"/>
<path d="M230.156 49.9013C197.851 57.7008 164.043 89.8638 154.643 121.739L169.529 137.387C178.929 105.512 212.738 73.3489 245.042 65.5493L230.156 49.9013Z" fill="black"/>
<path d="M189.051 86.7244L199.626 84.1712L214.513 99.8192L203.937 102.372L189.051 86.7244Z" fill="black"/>
<path d="M191.907 107.286C187.702 102.865 186.418 95.6645 189.052 86.733L203.939 102.381C201.305 111.313 202.589 118.513 206.794 122.934L191.907 107.286Z" fill="black"/>
<path d="M199.622 84.1729C197.838 90.2248 198.708 95.1033 201.559 98.0984L216.443 113.744C213.594 110.749 212.725 105.871 214.509 99.8209L199.622 84.1729Z" fill="black"/>
<path d="M274.946 48.814C266.258 39.6845 251.537 36.2948 232.842 40.8086L247.728 56.4566C266.424 51.9428 281.144 55.3326 289.832 64.462L274.946 48.814Z" fill="black"/>
<path d="M266.53 56.8195C259.024 48.9328 246.307 46.0046 230.157 49.9038L245.044 65.5519C261.194 61.6526 273.911 64.5809 281.416 72.4675L266.53 56.8195Z" fill="black"/>
<path d="M221.835 78.8117C217.454 79.8693 212.87 84.2305 211.595 88.5527L226.482 104.201C227.757 99.8785 232.341 95.5173 236.721 94.4597L221.835 78.8117Z" fill="black"/>
<path d="M226.767 79.7463C225.749 78.6769 224.025 78.2799 221.835 78.8086L236.722 94.4566C238.911 93.9279 240.636 94.325 241.654 95.3944L226.767 79.7463Z" fill="black"/>
<path d="M211.59 88.549C210.953 90.7104 211.264 92.4528 212.282 93.5224L227.168 109.17C226.15 108.1 225.84 106.358 226.477 104.197L211.59 88.549Z" fill="black"/>
<path d="M201.552 98.1067C204.401 101.101 209.23 102.213 215.361 100.732L230.248 116.38C224.116 117.861 219.288 116.749 216.438 113.755L201.552 98.1067Z" fill="black"/>
<path d="M227.457 84.7324C228.094 82.5716 227.783 80.8295 226.766 79.7598L241.652 95.407C242.67 96.4767 242.981 98.219 242.343 100.38L227.457 84.7324Z" fill="black"/>
<path d="M212.281 93.5342C213.299 94.6036 215.023 95.0007 217.213 94.472L232.1 110.12C229.91 110.649 228.186 110.252 227.168 109.182L212.281 93.5342Z" fill="black"/>
<path d="M217.219 94.4596C221.599 93.402 226.183 89.0408 227.458 84.7186L242.345 100.367C241.07 104.689 236.486 109.05 232.105 110.108L217.219 94.4596Z" fill="black"/>
<path d="M191.905 107.291C191.906 107.293 191.907 107.294 191.908 107.295L191.905 107.291Z" fill="black"/>
<path d="M191.905 107.291C191.906 107.293 191.907 107.294 191.908 107.295C196.115 111.715 203.242 113.356 212.294 111.171L227.181 126.819C218.127 129.005 210.998 127.362 206.792 122.939L191.908 107.295L191.905 107.291Z" fill="black"/>
<path d="M215.371 100.728C227.636 97.7665 240.472 85.5551 244.041 73.4529L258.928 89.1009C255.359 101.203 242.523 113.414 230.258 116.376L215.371 100.728Z" fill="black"/>
<path d="M244.042 73.4563L254.617 70.903L269.504 86.5511L258.929 89.1043L244.042 73.4563Z" fill="black"/>
<path d="M254.614 70.8993C249.346 88.7645 230.398 106.791 212.292 111.162L227.179 126.81C245.284 122.439 264.233 104.413 269.501 86.5474L254.614 70.8993Z" fill="black"/>
<path d="M242.663 109.133L178.684 124.581L193.57 140.229L257.55 124.781L242.663 109.133Z" fill="black"/>
<path d="M175.6 135.015L239.579 119.568L254.466 135.216L190.486 150.663L175.6 135.015Z" fill="black"/>
<path d="M271.635 93.4995C276.335 77.5638 274.044 64.7167 266.541 56.8276L281.422 72.4698C288.929 80.3584 291.222 93.2078 286.522 109.148L271.635 93.4995Z" fill="black"/>
<path d="M239.585 119.571L242.662 109.137L257.549 124.785L254.472 135.22L239.585 119.571Z" fill="black"/>
<path d="M280.813 90.4509C286.253 72.0039 284.127 56.4236 275.442 47.2913L289.797 63.6413C298.487 72.773 301.141 87.6473 295.7 106.099L280.813 90.4509Z" fill="url(#paint0_linear_545_6183)" fill-opacity="0.8"/>
<path d="M151.296 165.605C159.984 174.735 174.705 178.125 193.4 173.611L208.286 189.259C189.591 193.773 174.87 190.383 166.182 181.253L151.296 165.605Z" fill="url(#paint1_linear_545_6183)" fill-opacity="0.8"/>
<path d="M193.398 173.612C230.793 164.583 269.929 127.352 280.81 90.4535L295.697 106.102C284.816 143 245.68 180.231 208.285 189.26L193.398 173.612Z" fill="url(#paint2_linear_545_6183)" fill-opacity="0.8"/>
<circle cx="69.6553" cy="69.6553" r="69.6553" transform="matrix(0.972069 -0.234695 -0.282855 0.959163 165.412 56.1575)" fill="white"/>
<g filter="url(#filter0_bd_545_6183)">
<circle cx="69.6553" cy="69.6553" r="69.6553" transform="matrix(0.972069 -0.234695 -0.282855 0.959163 165.412 56.1575)" fill="url(#paint3_linear_545_6183)"/>
<circle cx="69.6553" cy="69.6553" r="69.1553" transform="matrix(0.972069 -0.234695 -0.282855 0.959163 165.412 56.1575)" stroke="#555B71"/>
</g>
<g filter="url(#filter1_bd_545_6183)">
<circle cx="60.1731" cy="60.1731" r="60.1731" transform="matrix(0.972069 -0.234695 -0.282855 0.959163 171.666 64.0175)" fill="url(#paint4_linear_545_6183)"/>
<circle cx="60.1731" cy="60.1731" r="59.6731" transform="matrix(0.972069 -0.234695 -0.282855 0.959163 171.666 64.0175)" stroke="#555B71"/>
</g>
<g opacity="0.8">
<mask id="mask1_545_6183" style="mask-type:alpha" maskUnits="userSpaceOnUse" x="195" y="102" width="39" height="25">
<path d="M195.781 126.805L233.25 113.71L222.082 102.946L203.876 105.236L195.781 126.805Z" fill="url(#paint5_linear_545_6183)"/>
</mask>
<g mask="url(#mask1_545_6183)">
<path opacity="0.5" d="M192.665 128.472L233.251 113.71L222.082 102.946L188.172 127.372L192.665 128.472Z" fill="url(#paint6_linear_545_6183)"/>
</g>
<path opacity="0.5" d="M222.167 103.625L249.185 100.945L225.576 78.191L222.167 103.625Z" fill="url(#paint7_radial_545_6183)"/>
<path fill-rule="evenodd" clipRule="evenodd" d="M223.328 98.0328C223.204 98.0453 223.099 97.9423 223.109 97.8179L225.933 62.2877C225.949 62.0943 226.203 62.0339 226.304 62.1998L246.469 95.4114C246.545 95.5371 246.464 95.6994 246.318 95.7142L223.328 98.0328Z" fill="white"/>
<path fill-rule="evenodd" clipRule="evenodd" d="M220.787 98.904C220.782 98.9558 220.758 99.0039 220.719 99.0382L188.332 127.542C188.164 127.69 187.917 127.492 188.025 127.295L223.247 63.2298C223.35 63.041 223.638 63.1273 223.621 63.3421L220.787 98.904Z" fill="white"/>
<path fill-rule="evenodd" clipRule="evenodd" d="M254.875 99.6283L254.974 100.418L231.619 105.826C231.464 105.861 231.411 106.054 231.525 106.165L240.122 114.45C240.231 114.555 240.188 114.739 240.043 114.785L184.714 132.113L183.562 131.003L232.181 113.656C232.321 113.606 232.359 113.427 232.252 113.324L221.786 103.236C221.663 103.118 221.735 102.91 221.905 102.893L254.875 99.6283Z" fill="url(#paint8_linear_545_6183)"/>
</g>
</g>
<defs>
<filter id="filter0_bd_545_6183" x="132.639" y="27.5791" width="161.561" height="158.083" filterUnits="userSpaceOnUse" color-interpolation-filters="sRGB">
<feFlood flood-opacity="0" result="BackgroundImageFix"/>
<feGaussianBlur in="BackgroundImageFix" stdDeviation="5.12184"/>
<feComposite in2="SourceAlpha" operator="in" result="effect1_backgroundBlur_545_6183"/>
<feColorMatrix in="SourceAlpha" type="matrix" values="0 0 0 0 0 0 0 0 0 0 0 0 0 0 0 0 0 0 127 0" result="hardAlpha"/>
<feOffset dy="1.02437"/>
<feGaussianBlur stdDeviation="1.02437"/>
<feComposite in2="hardAlpha" operator="out"/>
<feColorMatrix type="matrix" values="0 0 0 0 0 0 0 0 0 0 0 0 0 0 0 0 0 0 0.1 0"/>
<feBlend mode="normal" in2="effect1_backgroundBlur_545_6183" result="effect2_dropShadow_545_6183"/>
<feBlend mode="normal" in="SourceGraphic" in2="effect2_dropShadow_545_6183" result="shape"/>
</filter>
<filter id="filter1_bd_545_6183" x="141.96" y="37.935" width="142.356" height="139.352" filterUnits="userSpaceOnUse" color-interpolation-filters="sRGB">
<feFlood flood-opacity="0" result="BackgroundImageFix"/>
<feGaussianBlur in="BackgroundImageFix" stdDeviation="5.12184"/>
<feComposite in2="SourceAlpha" operator="in" result="effect1_backgroundBlur_545_6183"/>
<feColorMatrix in="SourceAlpha" type="matrix" values="0 0 0 0 0 0 0 0 0 0 0 0 0 0 0 0 0 0 127 0" result="hardAlpha"/>
<feOffset dy="1.02437"/>
<feGaussianBlur stdDeviation="1.02437"/>
<feComposite in2="hardAlpha" operator="out"/>
<feColorMatrix type="matrix" values="0 0 0 0 0 0 0 0 0 0 0 0 0 0 0 0 0 0 0.1 0"/>
<feBlend mode="normal" in2="effect1_backgroundBlur_545_6183" result="effect2_dropShadow_545_6183"/>
<feBlend mode="normal" in="SourceGraphic" in2="effect2_dropShadow_545_6183" result="shape"/>
</filter>
<linearGradient id="paint0_linear_545_6183" x1="172.48" y1="178.952" x2="287.642" y2="66.8135" gradientUnits="userSpaceOnUse">
<stop stop-color="#3A40AD" stop-opacity="0"/>
<stop offset="1" stop-color="#0F134A"/>
</linearGradient>
<linearGradient id="paint1_linear_545_6183" x1="172.48" y1="178.952" x2="287.642" y2="66.8135" gradientUnits="userSpaceOnUse">
<stop stop-color="#3A40AD" stop-opacity="0"/>
<stop offset="1" stop-color="#0F134A"/>
</linearGradient>
<linearGradient id="paint2_linear_545_6183" x1="172.48" y1="178.952" x2="287.642" y2="66.8135" gradientUnits="userSpaceOnUse">
<stop stop-color="#3A40AD" stop-opacity="0"/>
<stop offset="1" stop-color="#0F134A"/>
</linearGradient>
<linearGradient id="paint3_linear_545_6183" x1="92.3458" y1="-20.1681" x2="88.3428" y2="134.948" gradientUnits="userSpaceOnUse">
<stop stop-color="#333BBB"/>
<stop offset="1" stop-color="#5DD7DE"/>
</linearGradient>
<linearGradient id="paint4_linear_545_6183" x1="79.7747" y1="-17.4226" x2="76.3167" y2="116.578" gradientUnits="userSpaceOnUse">
<stop stop-color="#191F86"/>
<stop offset="1" stop-color="#5DD7DE"/>
</linearGradient>
<linearGradient id="paint5_linear_545_6183" x1="230.458" y1="115.225" x2="197.517" y2="114.081" gradientUnits="userSpaceOnUse">
<stop stop-color="white"/>
<stop offset="1" stop-color="white" stop-opacity="0"/>
</linearGradient>
<linearGradient id="paint6_linear_545_6183" x1="211.907" y1="121.184" x2="207.629" y2="112.744" gradientUnits="userSpaceOnUse">
<stop stop-color="#1204D3" stop-opacity="0.8"/>
<stop offset="1" stop-color="#0012F0" stop-opacity="0"/>
</linearGradient>
<radialGradient id="paint7_radial_545_6183" cx="0" cy="0" r="1" gradientUnits="userSpaceOnUse" gradientTransform="translate(226.716 102.536) rotate(-67.6426) scale(10.0689 17.0292)">
<stop stop-color="#425BCC"/>
<stop offset="1" stop-color="white" stop-opacity="0"/>
</radialGradient>
<linearGradient id="paint8_linear_545_6183" x1="249.125" y1="102.16" x2="187.011" y2="110.4" gradientUnits="userSpaceOnUse">
<stop stop-color="white" stop-opacity="0"/>
<stop offset="0.124501" stop-color="white" stop-opacity="0.71"/>
<stop offset="0.256651" stop-color="white"/>
<stop offset="0.578781" stop-color="white" stop-opacity="0.97"/>
<stop offset="0.79384" stop-color="#9EBAFE"/>
<stop offset="0.986914" stop-color="#7DF7E9" stop-opacity="0"/>
</linearGradient>
</defs>
</svg>
